<svg width="232.325px" height="122px" xmlns="http://www.w3.org/2000/svg" viewBox="133.8375 14 232.325 122" style="background:#596886" preserveAspectRatio="xMidYMid"><defs><filter id="editing-hover" x="-100%" y="-100%" width="300%" height="300%"><feFlood flood-color="#052b4a" result="flood"></feFlood><feComposite operator="in" in2="SourceAlpha" in="flood" result="shadow"></feComposite><feOffset dx="-4" dy="-4" in="SourceGraphic" result="offset-1"></feOffset><feOffset dx="4" dy="4" in="shadow" result="offset-2"></feOffset><feMerge><feMergeNode in="offset-2"></feMergeNode><feMergeNode in="offset-1"></feMergeNode></feMerge></filter></defs><g filter="url(#editing-hover)"><g transform="translate(174.3191204071045, 104.47000122070312)"><path d="M29.18 1.28L29.18 1.28L29.18 1.28Q20.99 1.28 20.22-10.37L20.22-10.37L9.22-10.37L9.22-10.37Q7.94-7.42 7.04-4.86L7.04-4.86L5.38 0L-3.58 0L16.58-42.24L30.34-42.24L33.02-11.14L33.02-11.14Q33.66-4.42 36.22-2.43L36.22-2.43L36.22-2.43Q34.37 1.28 29.18 1.28ZM14.72-23.17L11.20-15.04L20.03-15.04L19.26-31.49L19.26-33.22L14.72-23.17ZM59.97-17.98L59.97-17.98L59.97-17.98Q62.27-22.08 62.27-26.24L62.27-26.24L62.27-26.24Q62.27-28.99 60.29-28.99L60.29-28.99L60.29-28.99Q58.75-28.99 57.15-26.37L57.15-26.37L57.15-26.37Q55.49-23.74 54.98-20.35L54.98-20.35L51.65 0L38.40 1.28L44.93-32.64L55.49-33.92L54.34-27.46L54.34-27.46Q57.47-33.92 64.51-33.92L64.51-33.92L64.51-33.92Q68.22-33.92 70.24-32L70.24-32L70.24-32Q72.26-30.08 72.26-26.14L72.26-26.14L72.26-26.14Q72.26-22.21 69.66-19.71L69.66-19.71L69.66-19.71Q67.07-17.22 62.66-17.22L62.66-17.22L62.66-17.22Q60.74-17.22 59.97-17.98ZM93.44-33.92L93.44-33.92L93.44-33.92Q95.74-33.92 97.54-33.41L97.54-33.41L97.54-33.41Q97.60-33.66 97.73-34.37L97.73-34.37L98.05-36.35L98.05-36.35Q98.30-37.63 98.69-39.74L98.69-39.74L99.71-44.80L112.45-46.08L105.34-8.96L105.34-8.96Q105.28-8.58 105.28-7.94L105.28-7.94L105.28-6.91L105.28-6.91Q105.28-5.50 105.98-4.45L105.98-4.45L105.98-4.45Q106.69-3.39 107.84-3.39L107.84-3.39L107.84-3.39Q106.56-0.38 102.66 0.90L102.66 0.90L102.66 0.90Q101.31 1.28 99.42 1.28L99.42 1.28L99.42 1.28Q97.54 1.28 95.81 0.29L95.81 0.29L95.81 0.29Q94.08-0.70 93.57-2.37L93.57-2.37L93.57-2.37Q92.54-0.70 90.50 0.29L90.50 0.29L90.50 0.29Q88.45 1.28 85.47 1.28L85.47 1.28L85.47 1.28Q82.50 1.28 80.03 0.51L80.03 0.51L80.03 0.51Q77.57-0.26 76.03-1.92L76.03-1.92L76.03-1.92Q73.22-5.18 73.22-12.61L73.22-12.61L73.22-12.61Q73.22-22.21 78.85-28.03L78.85-28.03L78.85-28.03Q84.48-33.92 93.44-33.92ZM92.99-30.08L92.99-30.08L92.99-30.08Q90.62-30.08 89.34-27.52L89.34-27.52L89.34-27.52Q88.06-24.96 86.75-18.62L86.75-18.62L86.75-18.62Q85.44-12.29 85.44-6.59L85.44-6.59L85.44-6.59Q85.44-2.69 87.74-2.69L87.74-2.69L87.74-2.69Q89.79-2.69 91.23-4.74L91.23-4.74L91.23-4.74Q92.67-6.78 93.25-10.18L93.25-10.18L96.70-28.93L96.70-28.93Q95.36-30.08 92.99-30.08ZM133.63-7.23L133.63-7.23L133.63-7.23Q130.30-3.78 124.22-3.78L124.22-3.78L124.22-3.78Q116.61-3.78 115.01-9.34L115.01-9.34L115.01-9.34Q114.50-11.01 114.50-12.86L114.50-12.86L114.50-12.86Q114.50-14.72 114.88-16.64L114.88-16.64L117.89-32.64L130.88-33.92L127.36-15.30L127.36-15.30Q127.23-14.46 127.04-13.57L127.04-13.57L127.04-13.57Q126.85-12.67 126.85-11.74L126.85-11.74L126.85-11.74Q126.85-10.82 127.17-10.21L127.17-10.21L127.17-10.21Q127.49-9.60 127.94-9.22L127.94-9.22L127.94-9.22Q128.70-8.70 130.08-8.70L130.08-8.70L130.08-8.70Q131.46-8.70 132.64-10.37L132.64-10.37L132.64-10.37Q133.82-12.03 134.40-14.91L134.40-14.91L137.92-32.64L150.53-33.92L145.73-8.77L145.73-8.77Q143.36 3.52 138.50 8.38L138.50 8.38L138.50 8.38Q136 10.88 132.77 11.87L132.77 11.87L132.77 11.87Q129.54 12.86 125.38 12.86L125.38 12.86L125.38 12.86Q118.66 12.86 114.82 10.75L114.82 10.75L114.82 10.75Q110.98 8.64 110.98 5.12L110.98 5.12L110.98 5.12Q110.98 2.50 112.96 0.99L112.96 0.99L112.96 0.99Q114.94-0.51 118.02-0.51L118.02-0.51L118.02-0.51Q120.70-0.51 122.75 0.64L122.75 0.64L122.75 0.64Q123.97 1.34 124.54 2.24L124.54 2.24L124.54 2.24Q123.07 3.52 123.07 5.63L123.07 5.63L123.07 5.63Q123.07 8.45 125.63 8.45L125.63 8.45L125.63 8.45Q129.86 8.45 132.29-1.28L132.29-1.28L132.29-1.28Q132.99-4.16 133.63-7.23Z" fill="#ffd5af"></path></g></g><style>text {
  font-size: 64px;
  font-family: Arial Black;
  dominant-baseline: central;
  text-anchor: middle;
}</style></svg>